<svg width="16900" height="4006" viewBox="0 0 16900 4006" fill="none" xmlns="http://www.w3.org/2000/svg">
<path d="M0.5 4002.52V3705.52C150.473 3705.52 296.147 3711.73 361 3695.52C427.5 3677.02 437.53 3631.14 439.5 3595.02C441 3567.52 440 3562.52 440 3457.02L438 583.52C438 478.133 440 463.02 440 397.52C434.5 326.02 400.5 302.02 331 291.52C303 287.289 132 289.02 1 288.52V0.019534H2321.5C2863.5 0.0186484 3365 319.02 3430.5 375.522C3929 805.543 4051.83 1470.02 4064 1915.02C4077 2390.52 4013.29 2885.52 3776.5 3234.02C3555 3560.02 3087.5 3808.52 2722 3929.02C2570.93 3978.83 2447 4002.52 2321 4002.52H0.5ZM1656.5 3699.02C1952.5 3689.02 2051 3679.02 2277.5 3647.52C2779 3510.52 2967 3149.02 3038 3106.02C3175.81 2960.1 3272.04 2792.61 3345 2557.52C3406.5 2315.02 3394 2334.55 3394 1990.02C3394 1637.38 3389.33 1236.93 3288 977.52C3152.06 629.52 2714.96 474.872 2567 434.52C2176.5 328.02 2076 336.02 1707.5 316.52C1525.1 316.52 1027 319.02 945.5 319.02C895 319.02 888.5 357.52 888.5 375.52C888.5 416.02 888.5 540.346 888.5 629.52V3457.02C888.5 3675.52 872 3705.52 952.5 3705.52C1010 3705.52 1070 3705.52 1194 3705.52C1282.5 3705.52 1518.69 3699.02 1656.5 3699.02Z" fill="#37302F"/>
<path d="M2450.5 1226.52L3171.5 738.52L3840.5 1226.52V3008.02L2450.5 3832.52V1226.52Z" fill="#37302F"/>
<g filter="url(#filter0_di_492_129)">
<path d="M2819.5 1384.52L2646 1497.02V1724.02L2819.5 1663.52V1384.52Z" fill="#D9C097"/>
<path d="M3126.5 1230.02V1551.02L2960 1621.02V1316.52L3126.5 1230.02Z" fill="#D9C097"/>
<path d="M3126.5 1799.02V2103.52L2960 2143.52V1843.52L3126.5 1799.02Z" fill="#D9C097"/>
<path d="M2819.5 1860.02V2164.52L2646 2199.52V1921.02L2819.5 1860.02Z" fill="#D9C097"/>
<path d="M2819.5 2338.02V2627.52L2646 2640.02V2370.52L2819.5 2338.02Z" fill="#D9C097"/>
<path d="M3126.5 2280.52V2612.52L2960 2627.52V2310.52L3126.5 2280.52Z" fill="#D9C097"/>
<path d="M2819.5 2893.52H2679V3317.52H2819.5V2893.52Z" fill="#D9C097"/>
<path d="M2960 2893.52H3126.5V3341.02L2960 3317.52V2893.52Z" fill="#D9C097"/>
<path d="M3406 2310.52L3546.5 2338.02V2640.52L3406 2612.52V2310.52Z" fill="#D9C097"/>
<path d="M3631.5 2364.02L3743.5 2418.52V2672.02L3631.5 2640.52V2364.02Z" fill="#D9C097"/>
<path d="M3631.5 1891.52L3743.5 1972.02V2248.52L3631.5 2195.02V1891.52Z" fill="#D9C097"/>
<path d="M3406 1774.52L3546.5 1860.02V2164.52L3406 2137.52V1774.52Z" fill="#D9C097"/>
<path d="M3406 1215.02L3546.5 1328.52V1663.52L3406 1575.52V1215.02Z" fill="#D9C097"/>
<path d="M3631.5 1411.02L3743.5 1496.02V1799.02L3631.5 1719.02V1411.02Z" fill="#D9C097"/>
<path d="M2819.5 1384.52L2646 1497.02V1724.02L2819.5 1663.52V1384.52Z" stroke="#D9C097"/>
<path d="M3126.5 1230.02V1551.02L2960 1621.02V1316.52L3126.5 1230.02Z" stroke="#D9C097"/>
<path d="M3126.5 1799.02V2103.52L2960 2143.52V1843.52L3126.5 1799.02Z" stroke="#D9C097"/>
<path d="M2819.5 1860.02V2164.52L2646 2199.52V1921.02L2819.5 1860.02Z" stroke="#D9C097"/>
<path d="M2819.5 2338.02V2627.52L2646 2640.02V2370.52L2819.5 2338.02Z" stroke="#D9C097"/>
<path d="M3126.5 2280.52V2612.52L2960 2627.52V2310.52L3126.5 2280.52Z" stroke="#D9C097"/>
<path d="M2819.5 2893.52H2679V3317.52H2819.5V2893.52Z" stroke="#D9C097"/>
<path d="M2960 2893.52H3126.5V3341.02L2960 3317.52V2893.52Z" stroke="#D9C097"/>
<path d="M3406 2310.52L3546.5 2338.02V2640.52L3406 2612.52V2310.52Z" stroke="#D9C097"/>
<path d="M3631.5 2364.02L3743.5 2418.52V2672.02L3631.5 2640.52V2364.02Z" stroke="#D9C097"/>
<path d="M3631.5 1891.52L3743.5 1972.02V2248.52L3631.5 2195.02V1891.52Z" stroke="#D9C097"/>
<path d="M3406 1774.52L3546.5 1860.02V2164.52L3406 2137.52V1774.52Z" stroke="#D9C097"/>
<path d="M3406 1215.02L3546.5 1328.52V1663.52L3406 1575.52V1215.02Z" stroke="#D9C097"/>
<path d="M3631.5 1411.02L3743.5 1496.02V1799.02L3631.5 1719.02V1411.02Z" stroke="#D9C097"/>
</g>
<line x1="1519" y1="233.02" x2="1519" y2="1031.02" stroke="#37302F" stroke-width="40"/>
<rect x="1419" y="934.52" width="199" height="249" fill="#37302F"/>
<path d="M1522 1103.52C1284.52 1103.52 1092 1290.22 1092 1520.52H1952C1952 1290.22 1759.48 1103.52 1522 1103.52Z" fill="#37302F"/>
<g filter="url(#filter1_df_492_129)">
<path d="M1522 1695.02C1624.72 1695.02 1708 1616.67 1708 1520.02H1336C1336 1616.67 1419.28 1695.02 1522 1695.02Z" fill="#D9C096"/>
</g>
<path d="M277 2396.52C277 2286.06 366.543 2196.52 477 2196.52H1610C1720.46 2196.52 1810 2286.06 1810 2396.52V3041.52H277V2396.52Z" fill="#37302F"/>
<path d="M358 2400.02C358 2344.79 402.772 2300.02 458 2300.02H975V2957.02H358V2400.02Z" fill="#D9C197"/>
<path d="M1084 2300.52H1598C1653.23 2300.52 1698 2345.29 1698 2400.52V2956.52H1084V2300.52Z" fill="#D9C197"/>
<rect x="66" y="2996.52" width="2112" height="570" fill="#37302F"/>
<path d="M0 2681.52C0 2664.95 13.4315 2651.52 30 2651.52H381C463.843 2651.52 531 2718.68 531 2801.52V3566.52H0V2681.52Z" fill="#37302F"/>
<path d="M1768 2651.52H2088C2170.84 2651.52 2238 2718.68 2238 2801.52V3566.52H1768V2651.52Z" fill="#37302F"/>
<rect x="485" y="3041.52" width="1349" height="440" fill="#D9C197"/>
<path d="M1875 2804.52C1875 2776.91 1897.39 2754.52 1925 2754.52H2099C2126.61 2754.52 2149 2776.91 2149 2804.52V3481.52H1875V2804.52Z" fill="#D8C196"/>
<path d="M106 2784.52C106 2767.95 119.431 2754.52 136 2754.52H390C417.614 2754.52 440 2776.91 440 2804.52V3481.52H106V2784.52Z" fill="#D8C196"/>
<rect x="1949" y="3566.52" width="289" height="207" fill="#37302F"/>
<line x1="4826" y1="4005.02" x2="4826" y2="0.0019477" stroke="#37302F" stroke-width="100"/>
<path d="M5483.88 2876.44V3303H5410.34V2876.44H5483.88ZM5993.66 2876.44V3303H5920.12L5728.82 2997.43V3303H5655.28V2876.44H5728.82L5920.71 3182.59V2876.44H5993.66ZM6327.96 2876.44V3303H6255.01V2876.44H6327.96ZM6461.84 2876.44V2935.03H6122.29V2876.44H6461.84ZM6877.29 3244.7V3303H6650.83V3244.7H6877.29ZM6671.63 2876.44V3303H6598.09V2876.44H6671.63ZM6847.7 3054.56V3111.98H6650.83V3054.56H6847.7ZM6875.83 2876.44V2935.03H6650.83V2876.44H6875.83ZM7017.35 2876.44H7168.23C7200.65 2876.44 7228.29 2881.32 7251.14 2891.09C7273.99 2900.85 7291.47 2915.3 7303.58 2934.45C7315.89 2953.39 7322.04 2976.83 7322.04 3004.76C7322.04 3026.05 7318.13 3044.8 7310.32 3061.01C7302.51 3077.22 7291.47 3090.89 7277.21 3102.02C7262.96 3112.96 7245.96 3121.46 7226.24 3127.51L7203.97 3138.35H7068.33L7067.74 3080.05H7169.4C7186.98 3080.05 7201.63 3076.93 7213.35 3070.68C7225.07 3064.43 7233.86 3055.93 7239.71 3045.19C7245.77 3034.25 7248.8 3021.95 7248.8 3008.27C7248.8 2993.43 7245.87 2980.54 7240.01 2969.6C7234.34 2958.47 7225.55 2949.97 7213.64 2944.11C7201.73 2938.06 7186.59 2935.03 7168.23 2935.03H7090.89V3303H7017.35V2876.44ZM7260.81 3303L7160.61 3111.4L7237.66 3111.11L7339.32 3299.19V3303H7260.81ZM7553.8 2876.44V3303H7480.26V2876.44H7553.8ZM8065.34 3078V3101.44C8065.34 3133.66 8061.14 3162.57 8052.74 3188.16C8044.34 3213.74 8032.33 3235.52 8016.71 3253.49C8001.28 3271.46 7982.72 3285.23 7961.04 3294.8C7939.36 3304.17 7915.34 3308.86 7888.97 3308.86C7862.8 3308.86 7838.88 3304.17 7817.2 3294.8C7795.71 3285.23 7777.06 3271.46 7761.24 3253.49C7745.42 3235.52 7733.11 3213.74 7724.32 3188.16C7715.73 3162.57 7711.43 3133.66 7711.43 3101.44V3078C7711.43 3045.77 7715.73 3016.96 7724.32 2991.57C7732.92 2965.99 7745.03 2944.21 7760.65 2926.24C7776.47 2908.08 7795.12 2894.31 7816.61 2884.93C7838.29 2875.36 7862.21 2870.58 7888.39 2870.58C7914.75 2870.58 7938.78 2875.36 7960.46 2884.93C7982.14 2894.31 8000.79 2908.08 8016.41 2926.24C8032.04 2944.21 8044.05 2965.99 8052.45 2991.57C8061.04 3016.96 8065.34 3045.77 8065.34 3078ZM7991.8 3101.44V3077.41C7991.8 3053.59 7989.46 3032.59 7984.77 3014.43C7980.28 2996.07 7973.54 2980.73 7964.56 2968.43C7955.77 2955.93 7944.93 2946.55 7932.04 2940.3C7919.15 2933.86 7904.6 2930.64 7888.39 2930.64C7872.18 2930.64 7857.72 2933.86 7845.03 2940.3C7832.33 2946.55 7821.49 2955.93 7812.51 2968.43C7803.72 2980.73 7796.98 2996.07 7792.29 3014.43C7787.61 3032.59 7785.26 3053.59 7785.26 3077.41V3101.44C7785.26 3125.27 7787.61 3146.36 7792.29 3164.72C7796.98 3183.08 7803.82 3198.61 7812.8 3211.3C7821.98 3223.8 7832.92 3233.27 7845.61 3239.72C7858.31 3245.97 7872.76 3249.09 7888.97 3249.09C7905.38 3249.09 7919.93 3245.97 7932.62 3239.72C7945.32 3233.27 7956.06 3223.8 7964.85 3211.3C7973.64 3198.61 7980.28 3183.08 7984.77 3164.72C7989.46 3146.36 7991.8 3125.27 7991.8 3101.44ZM8218.88 2876.44H8369.75C8402.18 2876.44 8429.81 2881.32 8452.66 2891.09C8475.52 2900.85 8493 2915.3 8505.11 2934.45C8517.41 2953.39 8523.56 2976.83 8523.56 3004.76C8523.56 3026.05 8519.66 3044.8 8511.84 3061.01C8504.03 3077.22 8493 3090.89 8478.74 3102.02C8464.48 3112.96 8447.49 3121.46 8427.76 3127.51L8405.5 3138.35H8269.85L8269.27 3080.05H8370.93C8388.5 3080.05 8403.15 3076.93 8414.87 3070.68C8426.59 3064.43 8435.38 3055.93 8441.24 3045.19C8447.29 3034.25 8450.32 3021.95 8450.32 3008.27C8450.32 2993.43 8447.39 2980.54 8441.53 2969.6C8435.87 2958.47 8427.08 2949.97 8415.16 2944.11C8403.25 2938.06 8388.11 2935.03 8369.75 2935.03H8292.41V3303H8218.88V2876.44ZM8462.33 3303L8362.14 3111.4L8439.19 3111.11L8540.85 3299.19V3303H8462.33ZM8901.22 3193.14C8901.22 3184.35 8899.85 3176.54 8897.12 3169.7C8894.58 3162.86 8889.99 3156.61 8883.35 3150.95C8876.71 3145.29 8867.33 3139.82 8855.22 3134.54C8843.31 3129.07 8828.07 3123.51 8809.52 3117.84C8789.21 3111.59 8770.46 3104.66 8753.27 3097.04C8736.28 3089.23 8721.43 3080.25 8708.74 3070.09C8696.04 3059.74 8686.18 3047.92 8679.15 3034.64C8672.12 3021.16 8668.6 3005.64 8668.6 2988.06C8668.6 2970.68 8672.21 2954.86 8679.44 2940.6C8686.86 2926.34 8697.31 2914.04 8710.79 2903.68C8724.46 2893.14 8740.57 2885.03 8759.13 2879.37C8777.68 2873.51 8798.19 2870.58 8820.65 2870.58C8852.29 2870.58 8879.54 2876.44 8902.39 2888.16C8925.44 2899.88 8943.11 2915.6 8955.42 2935.32C8967.92 2955.05 8974.17 2976.83 8974.17 3000.66H8901.22C8901.22 2986.59 8898.19 2974.19 8892.14 2963.45C8886.28 2952.51 8877.29 2943.92 8865.18 2937.67C8853.27 2931.42 8838.13 2928.29 8819.77 2928.29C8802.39 2928.29 8787.94 2930.93 8776.41 2936.2C8764.89 2941.48 8756.3 2948.61 8750.63 2957.59C8744.97 2966.57 8742.14 2976.73 8742.14 2988.06C8742.14 2996.07 8743.99 3003.39 8747.7 3010.03C8751.41 3016.48 8757.08 3022.53 8764.7 3028.2C8772.31 3033.66 8781.88 3038.84 8793.41 3043.72C8804.93 3048.61 8818.5 3053.29 8834.13 3057.79C8857.76 3064.82 8878.37 3072.63 8895.95 3081.22C8913.52 3089.62 8928.17 3099.19 8939.89 3109.93C8951.61 3120.68 8960.4 3132.88 8966.26 3146.55C8972.12 3160.03 8975.05 3175.36 8975.05 3192.55C8975.05 3210.52 8971.43 3226.73 8964.21 3241.18C8956.98 3255.44 8946.63 3267.65 8933.15 3277.8C8919.87 3287.77 8903.86 3295.48 8885.11 3300.95C8866.55 3306.22 8845.85 3308.86 8823 3308.86C8802.49 3308.86 8782.27 3306.12 8762.35 3300.66C8742.62 3295.19 8724.66 3286.89 8708.45 3275.75C8692.23 3264.43 8679.34 3250.36 8669.77 3233.57C8660.2 3216.57 8655.42 3196.75 8655.42 3174.09H8728.95C8728.95 3187.96 8731.3 3199.78 8735.98 3209.54C8740.87 3219.31 8747.61 3227.32 8756.2 3233.57C8764.79 3239.62 8774.75 3244.11 8786.08 3247.04C8797.61 3249.97 8809.91 3251.44 8823 3251.44C8840.18 3251.44 8854.54 3249 8866.06 3244.11C8877.78 3239.23 8886.57 3232.39 8892.43 3223.61C8898.29 3214.82 8901.22 3204.66 8901.22 3193.14ZM9515.61 2933.27L9388.17 3303H9311.12L9471.67 2876.44H9520.89L9515.61 2933.27ZM9622.25 3303L9494.52 2933.27L9488.95 2876.44H9538.46L9699.6 3303H9622.25ZM9616.1 3144.8V3203.1H9384.07V3144.8H9616.1ZM10165.7 2876.44V3303H10092.2L9900.89 2997.43V3303H9827.35V2876.44H9900.89L10092.8 3182.59V2876.44H10165.7ZM10457.3 3303H10366.1L10366.7 3244.7H10457.3C10483.6 3244.7 10505.7 3238.94 10523.5 3227.41C10541.4 3215.89 10554.9 3199.39 10563.9 3177.9C10573.1 3156.42 10577.7 3130.83 10577.7 3101.14V3078C10577.7 3054.95 10575 3034.54 10569.8 3016.77C10564.7 2999 10557.1 2984.05 10546.9 2971.95C10536.9 2959.84 10524.6 2950.66 10510 2944.41C10495.5 2938.16 10478.8 2935.03 10459.9 2935.03H10364.4V2876.44H10459.9C10488.2 2876.44 10514.1 2881.22 10537.5 2890.79C10561 2900.17 10581.2 2913.74 10598.2 2931.52C10615.4 2949.29 10628.5 2970.58 10637.7 2995.38C10646.9 3020.19 10651.5 3047.92 10651.5 3078.59V3101.14C10651.5 3131.81 10646.9 3159.54 10637.7 3184.35C10628.5 3209.15 10615.4 3230.44 10598.2 3248.21C10581 3265.79 10560.5 3279.37 10536.6 3288.94C10513 3298.31 10486.6 3303 10457.3 3303ZM10406.9 2876.44V3303H10333.3V2876.44H10406.9ZM11158.7 3303H11067.5L11068.1 3244.7H11158.7C11185 3244.7 11207.1 3238.94 11224.9 3227.41C11242.8 3215.89 11256.3 3199.39 11265.3 3177.9C11274.5 3156.42 11279.1 3130.83 11279.1 3101.14V3078C11279.1 3054.95 11276.4 3034.54 11271.2 3016.77C11266.1 2999 11258.5 2984.05 11248.3 2971.95C11238.3 2959.84 11226 2950.66 11211.4 2944.41C11196.9 2938.16 11180.2 2935.03 11161.3 2935.03H11065.8V2876.44H11161.3C11189.6 2876.44 11215.5 2881.22 11238.9 2890.79C11262.4 2900.17 11282.6 2913.74 11299.6 2931.52C11316.8 2949.29 11329.9 2970.58 11339.1 2995.38C11348.3 3020.19 11352.9 3047.92 11352.9 3078.59V3101.14C11352.9 3131.81 11348.3 3159.54 11339.1 3184.35C11329.9 3209.15 11316.8 3230.44 11299.6 3248.21C11282.4 3265.79 11261.9 3279.37 11238.1 3288.94C11214.4 3298.31 11188 3303 11158.7 3303ZM11108.3 2876.44V3303H11034.7V2876.44H11108.3ZM11785.9 3244.7V3303H11559.5V3244.7H11785.9ZM11580.3 2876.44V3303H11506.7V2876.44H11580.3ZM11756.3 3054.56V3111.98H11559.5V3054.56H11756.3ZM11784.5 2876.44V2935.03H11559.5V2876.44H11784.5ZM12072.2 3225.07L12184.4 2876.44H12265.5L12112.6 3303H12057.8L12072.2 3225.07ZM11968.5 2876.44L12079.8 3225.07L12095 3303H12039.9L11887.6 2876.44H11968.5ZM12672.5 3244.7V3303H12446V3244.7H12672.5ZM12466.8 2876.44V3303H12393.3V2876.44H12466.8ZM12642.9 3054.56V3111.98H12446V3054.56H12642.9ZM12671 2876.44V2935.03H12446V2876.44H12671ZM13079.7 3244.7V3303H12865.6V3244.7H13079.7ZM12886.1 2876.44V3303H12812.5V2876.44H12886.1ZM13537.4 3078V3101.44C13537.4 3133.66 13533.2 3162.57 13524.8 3188.16C13516.4 3213.74 13504.4 3235.52 13488.7 3253.49C13473.3 3271.46 13454.8 3285.23 13433.1 3294.8C13411.4 3304.17 13387.4 3308.86 13361 3308.86C13334.8 3308.86 13310.9 3304.17 13289.2 3294.8C13267.7 3285.23 13249.1 3271.46 13233.3 3253.49C13217.4 3235.52 13205.1 3213.74 13196.4 3188.16C13187.8 3162.57 13183.5 3133.66 13183.5 3101.44V3078C13183.5 3045.77 13187.8 3016.96 13196.4 2991.57C13204.9 2965.99 13217.1 2944.21 13232.7 2926.24C13248.5 2908.08 13267.2 2894.31 13288.6 2884.93C13310.3 2875.36 13334.2 2870.58 13360.4 2870.58C13386.8 2870.58 13410.8 2875.36 13432.5 2884.93C13454.2 2894.31 13472.8 2908.08 13488.4 2926.24C13504.1 2944.21 13516.1 2965.99 13524.5 2991.57C13533.1 3016.96 13537.4 3045.77 13537.4 3078ZM13463.8 3101.44V3077.41C13463.8 3053.59 13461.5 3032.59 13456.8 3014.43C13452.3 2996.07 13445.6 2980.73 13436.6 2968.43C13427.8 2955.93 13417 2946.55 13404.1 2940.3C13391.2 2933.86 13376.6 2930.64 13360.4 2930.64C13344.2 2930.64 13329.8 2933.86 13317.1 2940.3C13304.4 2946.55 13293.5 2955.93 13284.5 2968.43C13275.8 2980.73 13269 2996.07 13264.3 3014.43C13259.6 3032.59 13257.3 3053.59 13257.3 3077.41V3101.44C13257.3 3125.27 13259.6 3146.36 13264.3 3164.72C13269 3183.08 13275.8 3198.61 13284.8 3211.3C13294 3223.8 13304.9 3233.27 13317.6 3239.72C13330.3 3245.97 13344.8 3249.09 13361 3249.09C13377.4 3249.09 13392 3245.97 13404.7 3239.72C13417.4 3233.27 13428.1 3223.8 13436.9 3211.3C13445.7 3198.61 13452.3 3183.08 13456.8 3164.72C13461.5 3146.36 13463.8 3125.27 13463.8 3101.44ZM13852.9 3143.92H13741.9V3085.62H13852.9C13872.3 3085.62 13887.9 3082.49 13899.8 3076.24C13911.7 3069.99 13920.4 3061.4 13925.9 3050.46C13931.5 3039.33 13934.4 3026.63 13934.4 3012.38C13934.4 2998.9 13931.5 2986.3 13925.9 2974.58C13920.4 2962.67 13911.7 2953.1 13899.8 2945.87C13887.9 2938.64 13872.3 2935.03 13852.9 2935.03H13764.4V3303H13690.9V2876.44H13852.9C13885.9 2876.44 13914 2882.3 13937 2894.02C13960.2 2905.54 13977.9 2921.55 13990 2942.06C14002.1 2962.38 14008.2 2985.62 14008.2 3011.79C14008.2 3039.33 14002.1 3062.96 13990 3082.69C13977.9 3102.41 13960.2 3117.55 13937 3128.1C13914 3138.64 13885.9 3143.92 13852.9 3143.92ZM14433.3 3244.7V3303H14206.8V3244.7H14433.3ZM14227.6 2876.44V3303H14154.1V2876.44H14227.6ZM14403.7 3054.56V3111.98H14206.8V3054.56H14403.7ZM14431.8 2876.44V2935.03H14206.8V2876.44H14431.8ZM14573.4 2876.44H14724.2C14756.7 2876.44 14784.3 2881.32 14807.2 2891.09C14830 2900.85 14847.5 2915.3 14859.6 2934.45C14871.9 2953.39 14878.1 2976.83 14878.1 3004.76C14878.1 3026.05 14874.1 3044.8 14866.3 3061.01C14858.5 3077.22 14847.5 3090.89 14833.2 3102.02C14819 3112.96 14802 3121.46 14782.3 3127.51L14760 3138.35H14624.3L14623.8 3080.05H14725.4C14743 3080.05 14757.6 3076.93 14769.4 3070.68C14781.1 3064.43 14789.9 3055.93 14795.7 3045.19C14801.8 3034.25 14804.8 3021.95 14804.8 3008.27C14804.8 2993.43 14801.9 2980.54 14796 2969.6C14790.4 2958.47 14781.6 2949.97 14769.7 2944.11C14757.7 2938.06 14742.6 2935.03 14724.2 2935.03H14646.9V3303H14573.4V2876.44ZM14816.8 3303L14716.6 3111.4L14793.7 3111.11L14895.3 3299.19V3303H14816.8ZM15255.7 3193.14C15255.7 3184.35 15254.3 3176.54 15251.6 3169.7C15249.1 3162.86 15244.5 3156.61 15237.8 3150.95C15231.2 3145.29 15221.8 3139.82 15209.7 3134.54C15197.8 3129.07 15182.6 3123.51 15164 3117.84C15143.7 3111.59 15124.9 3104.66 15107.8 3097.04C15090.8 3089.23 15075.9 3080.25 15063.2 3070.09C15050.5 3059.74 15040.7 3047.92 15033.6 3034.64C15026.6 3021.16 15023.1 3005.64 15023.1 2988.06C15023.1 2970.68 15026.7 2954.86 15033.9 2940.6C15041.4 2926.34 15051.8 2914.04 15065.3 2903.68C15079 2893.14 15095.1 2885.03 15113.6 2879.37C15132.2 2873.51 15152.7 2870.58 15175.1 2870.58C15206.8 2870.58 15234 2876.44 15256.9 2888.16C15279.9 2899.88 15297.6 2915.6 15309.9 2935.32C15322.4 2955.05 15328.7 2976.83 15328.7 3000.66H15255.7C15255.7 2986.59 15252.7 2974.19 15246.6 2963.45C15240.8 2952.51 15231.8 2943.92 15219.7 2937.67C15207.8 2931.42 15192.6 2928.29 15174.3 2928.29C15156.9 2928.29 15142.4 2930.93 15130.9 2936.2C15119.4 2941.48 15110.8 2948.61 15105.1 2957.59C15099.5 2966.57 15096.6 2976.73 15096.6 2988.06C15096.6 2996.07 15098.5 3003.39 15102.2 3010.03C15105.9 3016.48 15111.6 3022.53 15119.2 3028.2C15126.8 3033.66 15136.4 3038.84 15147.9 3043.72C15159.4 3048.61 15173 3053.29 15188.6 3057.79C15212.3 3064.82 15232.9 3072.63 15250.4 3081.22C15268 3089.62 15282.7 3099.19 15294.4 3109.93C15306.1 3120.68 15314.9 3132.88 15320.8 3146.55C15326.6 3160.03 15329.5 3175.36 15329.5 3192.55C15329.5 3210.52 15325.9 3226.73 15318.7 3241.18C15311.5 3255.44 15301.1 3267.65 15287.6 3277.8C15274.4 3287.77 15258.3 3295.48 15239.6 3300.95C15221 3306.22 15200.3 3308.86 15177.5 3308.86C15157 3308.86 15136.8 3306.12 15116.8 3300.66C15097.1 3295.19 15079.1 3286.89 15062.9 3275.75C15046.7 3264.43 15033.8 3250.36 15024.3 3233.57C15014.7 3216.57 15009.9 3196.75 15009.9 3174.09H15083.4C15083.4 3187.96 15085.8 3199.78 15090.5 3209.54C15095.4 3219.31 15102.1 3227.32 15110.7 3233.57C15119.3 3239.62 15129.2 3244.11 15140.6 3247.04C15152.1 3249.97 15164.4 3251.44 15177.5 3251.44C15194.7 3251.44 15209 3249 15220.6 3244.11C15232.3 3239.23 15241.1 3232.39 15246.9 3223.61C15252.8 3214.82 15255.7 3204.66 15255.7 3193.14Z" fill="#37302F"/>
<path d="M5462 2445.5V2383L5512 2378C5570.33 2371.33 5614.5 2363 5644.5 2353C5676.17 2341.33 5697.83 2318 5709.5 2283C5722.83 2246.33 5729.5 2187.17 5729.5 2105.5V995.5C5729.5 912.167 5723.67 853 5712 818C5700.33 783 5678.67 760.5 5647 750.5C5617 738.833 5572.83 729.667 5514.5 723L5464.5 718V655.5L5834.5 663H6187C6412 663 6602 693 6757 753C6913.67 813 7032.83 908 7114.5 1038C7196.17 1166.33 7237 1334.67 7237 1543C7237 1691.33 7212 1821.33 7162 1933C7112 2044.67 7043.67 2138 6957 2213C6870.33 2288 6771.17 2344.67 6659.5 2383C6549.5 2419.67 6433.67 2438 6312 2438H5832L5462 2445.5ZM6109.5 2363H6322C6525.33 2363 6688.67 2297.17 6812 2165.5C6935.33 2032.17 6997 1826.33 6997 1548C6997 1378 6972.83 1233 6924.5 1113C6877.83 991.333 6800.33 898.833 6692 835.5C6585.33 770.5 6441.17 738 6259.5 738H5944.5V2073C5944.5 2121.33 5947.83 2168 5954.5 2213C5961.17 2256.33 5976.17 2292.17 5999.5 2320.5C6022.83 2348.83 6059.5 2363 6109.5 2363ZM7287.76 2445.5V2383L7310.26 2380.5C7368.6 2372.17 7416.1 2360.5 7452.76 2345.5C7491.1 2330.5 7523.6 2306.33 7550.26 2273C7578.6 2238 7605.26 2190.5 7630.26 2130.5L8235.26 663H8320.26L8910.26 2130.5C8943.6 2212.17 8979.43 2272.17 9017.76 2310.5C9056.1 2348.83 9108.6 2371.33 9175.26 2378L9225.26 2383V2445.5L8915.26 2438L8515.26 2445.5V2383L8565.26 2378C8623.6 2371.33 8665.26 2358.83 8690.26 2340.5C8715.26 2322.17 8727.76 2296.33 8727.76 2263C8727.76 2229.67 8716.1 2184.67 8692.76 2128L8562.76 1803H7857.76L7722.76 2128C7711.1 2158 7701.1 2185.5 7692.76 2210.5C7684.43 2233.83 7680.26 2254.67 7680.26 2273C7680.26 2304.67 7693.6 2328.83 7720.26 2345.5C7748.6 2362.17 7794.43 2373 7857.76 2378L7907.76 2383V2445.5L7590.26 2438L7287.76 2445.5ZM7890.26 1723H8532.76L8217.76 930.5L7890.26 1723ZM9405.55 2448V2385.5L9455.55 2380.5C9513.89 2373.83 9558.05 2365.5 9588.05 2355.5C9619.72 2345.5 9641.39 2322.17 9653.05 2285.5C9664.72 2248.83 9670.55 2188.83 9670.55 2105.5V815.5C9655.55 797.167 9633.05 777.167 9603.05 755.5C9573.05 732.167 9528.89 720.5 9470.55 720.5H9395.55V655.5L9880.55 663C9910.55 704.667 9950.55 759.667 10000.6 828C10052.2 896.333 10108.9 972.167 10170.6 1055.5C10233.9 1138.83 10298.9 1224.67 10365.6 1313C10432.2 1399.67 10496.4 1483.83 10558.1 1565.5C10621.4 1647.17 10678.1 1720.5 10728.1 1785.5C10778.1 1850.5 10817.2 1902.17 10845.6 1940.5V995.5C10845.6 912.167 10839.7 853 10828.1 818C10816.4 781.333 10794.7 758 10763.1 748C10733.1 736.333 10688.9 728 10630.6 723L10580.6 718V655.5L10905.6 663L11210.6 655.5V718L11160.6 723C11103.9 729.667 11059.7 738.833 11028.1 750.5C10996.4 760.5 10974.7 783 10963.1 818C10951.4 853 10945.6 912.167 10945.6 995.5V2438H10870.6C10843.9 2383 10803.9 2315.5 10750.6 2235.5C10698.9 2153.83 10638.9 2064.67 10570.6 1968C10502.2 1871.33 10430.6 1773 10355.6 1673C10282.2 1571.33 10208.9 1473 10135.6 1378C10062.2 1283 9993.89 1196.33 9930.55 1118C9867.22 1039.67 9813.89 974.667 9770.55 923V2105.5C9770.55 2188.83 9776.39 2248.83 9788.05 2285.5C9799.72 2322.17 9821.39 2345.5 9853.05 2355.5C9884.72 2365.5 9928.89 2373.83 9985.55 2380.5L10035.6 2385.5V2448L9715.55 2438L9405.55 2448ZM11481.2 2445.5V2383L11531.2 2378C11589.5 2371.33 11633.7 2363 11663.7 2353C11695.3 2341.33 11717 2318 11728.7 2283C11742 2246.33 11748.7 2187.17 11748.7 2105.5V995.5C11748.7 912.167 11742.8 853 11731.2 818C11719.5 783 11697.8 760.5 11666.2 750.5C11636.2 738.833 11592 729.667 11533.7 723L11483.7 718V655.5L11853.7 663H12206.2C12431.2 663 12621.2 693 12776.2 753C12932.8 813 13052 908 13133.7 1038C13215.3 1166.33 13256.2 1334.67 13256.2 1543C13256.2 1691.33 13231.2 1821.33 13181.2 1933C13131.2 2044.67 13062.8 2138 12976.2 2213C12889.5 2288 12790.3 2344.67 12678.7 2383C12568.7 2419.67 12452.8 2438 12331.2 2438H11851.2L11481.2 2445.5ZM12128.7 2363H12341.2C12544.5 2363 12707.8 2297.17 12831.2 2165.5C12954.5 2032.17 13016.2 1826.33 13016.2 1548C13016.2 1378 12992 1233 12943.7 1113C12897 991.333 12819.5 898.833 12711.2 835.5C12604.5 770.5 12460.3 738 12278.7 738H11963.7V2073C11963.7 2121.33 11967 2168 11973.7 2213C11980.3 2256.33 11995.3 2292.17 12018.7 2320.5C12042 2348.83 12078.7 2363 12128.7 2363ZM14466.2 2465.5C14257.8 2465.5 14096.2 2419.67 13981.2 2328C13866.2 2236.33 13808.7 2087.17 13808.7 1880.5V995.5C13808.7 912.167 13802.8 853 13791.2 818C13779.5 783 13757.8 760.5 13726.2 750.5C13696.2 738.833 13652 729.667 13593.7 723L13543.7 718V655.5L13913.7 663H13916.2L14286.2 655.5V718L14236.2 723C14179.5 729.667 14135.3 738.833 14103.7 750.5C14072 760.5 14050.3 783 14038.7 818C14027 853 14021.2 912.167 14021.2 995.5V1880.5C14021.2 2048.83 14067 2174.67 14158.7 2258C14250.3 2341.33 14368.7 2383 14513.7 2383C14682 2383 14803.7 2337.17 14878.7 2245.5C14953.7 2152.17 14991.2 2025.5 14991.2 1865.5V995.5C14991.2 912.167 14985.3 853 14973.7 818C14962 783 14940.3 760.5 14908.7 750.5C14878.7 738.833 14834.5 729.667 14776.2 723L14726.2 718V655.5L15096.2 660.5L15343.7 655.5V718L15293.7 723C15237 729.667 15192.8 738.833 15161.2 750.5C15129.5 760.5 15107.8 783 15096.2 818C15084.5 853 15078.7 912.167 15078.7 995.5V1865.5C15078.7 2058.83 15027.8 2207.17 14926.2 2310.5C14824.5 2413.83 14671.2 2465.5 14466.2 2465.5Z" fill="#37302F"/>
<defs>
<filter id="filter0_di_492_129" x="2645.5" y="1213.97" width="1113.5" height="2152.62" filterUnits="userSpaceOnUse" color-interpolation-filters="sRGB">
<feFlood flood-opacity="0" result="BackgroundImageFix"/>
<feColorMatrix in="SourceAlpha" type="matrix" values="0 0 0 0 0 0 0 0 0 0 0 0 0 0 0 0 0 0 127 0" result="hardAlpha"/>
<feOffset dx="10" dy="20"/>
<feGaussianBlur stdDeviation="2.5"/>
<feComposite in2="hardAlpha" operator="out"/>
<feColorMatrix type="matrix" values="0 0 0 0 0 0 0 0 0 0 0 0 0 0 0 0 0 0 0.4 0"/>
<feBlend mode="normal" in2="BackgroundImageFix" result="effect1_dropShadow_492_129"/>
<feBlend mode="normal" in="SourceGraphic" in2="effect1_dropShadow_492_129" result="shape"/>
<feColorMatrix in="SourceAlpha" type="matrix" values="0 0 0 0 0 0 0 0 0 0 0 0 0 0 0 0 0 0 127 0" result="hardAlpha"/>
<feOffset dx="10" dy="10"/>
<feGaussianBlur stdDeviation="2"/>
<feComposite in2="hardAlpha" operator="arithmetic" k2="-1" k3="1"/>
<feColorMatrix type="matrix" values="0 0 0 0 0 0 0 0 0 0 0 0 0 0 0 0 0 0 0.25 0"/>
<feBlend mode="normal" in2="shape" result="effect2_innerShadow_492_129"/>
</filter>
<filter id="filter1_df_492_129" x="1236" y="1424.02" width="572" height="375" filterUnits="userSpaceOnUse" color-interpolation-filters="sRGB">
<feFlood flood-opacity="0" result="BackgroundImageFix"/>
<feColorMatrix in="SourceAlpha" type="matrix" values="0 0 0 0 0 0 0 0 0 0 0 0 0 0 0 0 0 0 127 0" result="hardAlpha"/>
<feOffset dy="4"/>
<feGaussianBlur stdDeviation="50"/>
<feComposite in2="hardAlpha" operator="out"/>
<feColorMatrix type="matrix" values="0 0 0 0 0 0 0 0 0 0 0 0 0 0 0 0 0 0 0.25 0"/>
<feBlend mode="normal" in2="BackgroundImageFix" result="effect1_dropShadow_492_129"/>
<feBlend mode="normal" in="SourceGraphic" in2="effect1_dropShadow_492_129" result="shape"/>
<feGaussianBlur stdDeviation="5" result="effect2_foregroundBlur_492_129"/>
</filter>
</defs>
</svg>
