<svg width="2778" height="876" viewBox="0 0 2778 876" fill="none" xmlns="http://www.w3.org/2000/svg">
<g filter="url(#filter0_n_756_85)">
<circle cx="438" cy="438" r="438" fill="#FFC533"/>
<circle cx="438" cy="438" r="435.5" stroke="#FFC533" stroke-width="5"/>
</g>
<circle cx="438" cy="438" r="435.5" fill="#FFC533" stroke="#FFC533" stroke-width="5"/>
<path d="M2592.39 314.5C2595.38 314.5 2597.72 315.249 2599.31 316.834C2600.89 318.419 2601.64 320.756 2601.64 323.75V460.8H2664.34V323.75C2664.34 320.756 2665.09 318.419 2666.67 316.834C2668.26 315.249 2670.6 314.5 2673.59 314.5H2766.69C2769.68 314.5 2772.02 315.249 2773.61 316.834C2775.19 318.419 2775.94 320.756 2775.94 323.75V450.8C2775.94 452.918 2775.82 454.922 2775.59 456.812L2775.59 456.82L2775.09 456.75L2775.58 456.82C2775.33 458.631 2774.17 460.254 2772.24 461.7L2725.89 498.989V510.754L2773.63 547.341C2775.58 548.57 2776.73 550.204 2776.99 552.238C2777.22 554.128 2777.34 556.132 2777.34 558.25V691.25C2777.34 694.244 2776.59 696.581 2775.01 698.166C2773.42 699.751 2771.08 700.5 2768.09 700.5H2674.64C2671.65 700.5 2669.31 699.751 2667.72 698.166C2666.14 696.581 2665.39 694.244 2665.39 691.25V548.25H2602.69V691.25C2602.69 694.244 2601.94 696.581 2600.36 698.166C2598.77 699.751 2596.43 700.5 2593.44 700.5H2500.34C2497.35 700.5 2495.01 699.751 2493.42 698.166C2491.84 696.581 2491.09 694.244 2491.09 691.25V558.25C2491.09 556.132 2491.21 554.241 2491.45 552.579L2491.45 552.554L2491.46 552.528C2491.95 550.549 2493.06 548.829 2494.76 547.37L2494.77 547.365L2494.78 547.361L2540.09 510.761V498.99L2493.38 461.69L2493.37 461.686L2493.37 461.68C2491.68 460.233 2490.56 458.637 2490.06 456.888L2490.05 456.851L2490.04 456.812C2489.81 454.922 2489.69 452.918 2489.69 450.8V323.75C2489.69 320.756 2490.44 318.419 2492.02 316.834C2493.61 315.249 2495.95 314.5 2498.94 314.5H2592.39Z" fill="#FFC533" stroke="#FFC533"/>
<path d="M2329.84 314.5C2335.34 314.5 2340.13 316.541 2344.19 320.597L2414.18 390.586L2414.55 390.948C2418.37 394.718 2420.29 399.396 2420.29 404.95V548.95H2232.31L2229.9 594.645L2279.18 610.955L2368.37 617.251L2368.4 617.253L2368.42 617.258C2370.5 617.625 2372.12 618.525 2373.2 619.99C2374.28 621.446 2374.79 623.401 2374.79 625.8V691.25C2374.79 694.244 2374.04 696.581 2372.45 698.166C2370.87 699.751 2368.53 700.5 2365.54 700.5H2287.14C2284.75 700.5 2282.15 700.143 2279.31 699.436L2279.3 699.433C2276.75 698.735 2274.31 698.155 2271.99 697.69L2271.98 697.688L2271.97 697.686L2209.67 682.285L2209.65 682.28L2209.63 682.274L2138.23 658.475C2134.6 657.265 2131.87 654.899 2130.07 651.404C2128.27 647.925 2127.39 643.345 2127.39 637.7V404.95C2127.39 399.217 2129.42 394.417 2133.49 390.586L2203.48 320.597C2207.54 316.541 2212.33 314.5 2217.84 314.5H2329.84ZM2272.79 391.45C2261.74 391.45 2252.9 395.696 2246.23 404.201L2246.23 404.202C2239.79 412.723 2236.54 424.156 2236.54 438.55V445.55C2236.54 460.175 2239.79 471.722 2246.23 480.241L2246.86 481.026C2253.46 489.009 2262.2 493 2273.14 493H2279.79C2291.07 493 2300.03 488.748 2306.69 480.241L2306.7 480.235L2307.33 479.428C2313.82 470.992 2317.09 459.715 2317.09 445.55V438.55C2317.09 424.163 2313.61 412.735 2306.7 404.215L2306.69 404.208C2300.03 395.702 2291.07 391.45 2279.79 391.45H2272.79Z" fill="#FFC533" stroke="#FFC533"/>
<path d="M1958.56 314.5C1964.07 314.5 1968.86 316.541 1972.92 320.597L2042.91 390.586L2043.28 390.948C2047.1 394.718 2049.01 399.396 2049.01 404.95V691.25C2049.01 694.244 2048.26 696.581 2046.68 698.166C2045.09 699.751 2042.76 700.5 2039.76 700.5H1946.31C1943.32 700.5 1940.98 699.751 1939.4 698.166C1937.81 696.581 1937.06 694.244 1937.06 691.25V418.95C1937.06 413.544 1935.71 409.581 1933.1 406.966C1930.48 404.351 1926.52 403 1921.11 403H1874.01V691.25C1874.01 694.244 1873.26 696.581 1871.68 698.166C1870.09 699.751 1867.76 700.5 1864.76 700.5H1771.31C1768.32 700.5 1765.98 699.751 1764.4 698.166C1762.81 696.581 1762.06 694.244 1762.06 691.25V323.75C1762.06 320.756 1762.81 318.419 1764.4 316.834C1765.98 315.249 1768.32 314.5 1771.31 314.5H1958.56Z" fill="#FFC533" stroke="#FFC533"/>
<path fill-rule="evenodd" clip-rule="evenodd" d="M1570.47 278.95C1570.47 283.617 1572.81 285.95 1577.47 285.95H1674.77C1678.97 285.95 1681.07 283.617 1681.07 278.95V234.5C1681.07 229.833 1678.97 227.5 1674.77 227.5H1577.47C1572.81 227.5 1570.47 229.833 1570.47 234.5V278.95Z" fill="white"/>
<path d="M1579.22 700C1573.39 700 1570.47 697.083 1570.47 691.25V323.75C1570.47 317.917 1573.39 315 1579.22 315H1672.32C1678.16 315 1681.07 317.917 1681.07 323.75V691.25C1681.07 697.083 1678.16 700 1672.32 700H1579.22Z" fill="#FFC533"/>
<path d="M1388.38 314.5C1392.98 314.5 1396.96 316.567 1400.31 320.622L1434.24 359.75L1472.01 318.86C1474.68 315.953 1478.08 314.5 1482.18 314.5H1519.98C1522.97 314.5 1525.31 315.249 1526.9 316.834C1528.48 318.419 1529.23 320.756 1529.23 323.75V399C1529.23 402.729 1529 405.372 1528.5 406.858L1528.49 406.886C1527.97 408.2 1526.58 409.551 1524.47 410.957L1437.88 474.852V691.25C1437.88 694.244 1437.13 696.581 1435.55 698.166C1433.96 699.751 1431.62 700.5 1428.63 700.5H1335.18C1332.19 700.5 1329.85 699.751 1328.26 698.166C1326.68 696.581 1325.93 694.244 1325.93 691.25V323.75C1325.93 320.756 1326.68 318.419 1328.26 316.834C1329.85 315.249 1332.19 314.5 1335.18 314.5H1388.38Z" fill="#FFC533" stroke="#FFC533"/>
<path d="M1233.8 232.95L1234.35 232.959C1237.08 233.047 1239.23 233.798 1240.72 235.284C1242.3 236.869 1243.05 239.206 1243.05 242.2V317.8C1243.05 320.793 1242.3 323.131 1240.72 324.716C1239.13 326.301 1236.79 327.05 1233.8 327.05H1173.05V691.25C1173.05 694.244 1172.3 696.581 1170.72 698.166C1169.13 699.751 1166.79 700.5 1163.8 700.5H1064.75C1061.76 700.5 1059.42 699.751 1057.83 698.166C1056.25 696.581 1055.5 694.244 1055.5 691.25V327.05H994.75C991.756 327.05 989.419 326.301 987.834 324.716C986.249 323.131 985.5 320.793 985.5 317.8V242.2C985.5 239.206 986.249 236.869 987.834 235.284C989.419 233.699 991.756 232.95 994.75 232.95H1233.8Z" fill="#FFC533" stroke="#FFC533"/>
<path d="M515.866 326.229L540.626 302.116L570.666 311.015C594.849 321.135 604.232 332.077 615.7 358.224L626.466 392.776L602.429 416.37L588.017 369.1C581.332 351.873 574.934 345.17 558.183 338.807L515.866 326.229Z" fill="white" stroke="#FFC533" stroke-width="2"/>
<path d="M492.84 535.063L500.729 569.269L475.388 592.265C454.32 606.813 441.084 609.74 415.495 605.875L378.319 597.714L371.074 565.017L424.127 576.684C438.814 578.142 445.85 576.337 456.762 569.046L492.84 535.063Z" fill="white" stroke="#FFC533" stroke-width="2"/>
<path d="M171.773 399.17C165.531 390.829 162.773 380.305 161.614 365.475L161.612 365.454L161.611 365.433L157.342 248.023L157.339 247.902L157.363 247.783C160.918 230.661 166.204 219.356 174.935 212.635C183.669 205.913 195.638 203.941 212.135 204.941L212.248 204.949L212.357 204.981L484.349 285.214L486.006 285.703L484.757 286.896L459.934 310.615L459.516 311.016L458.961 310.852L208.164 236.919C204.724 236.187 201.875 235.786 199.524 235.832C197.172 235.878 195.39 236.37 194.021 237.353C191.277 239.324 189.749 243.605 189.414 252.044L193.509 355.738L193.511 355.761L193.51 355.783C193.451 367.284 194.972 374.649 198.789 379.832C202.598 385.005 208.835 388.193 218.716 390.972L353.545 428.41L528.418 255.427L449.775 228.467L449.748 228.458L449.721 228.447C439.767 224.377 432.578 222.931 426.216 224.293C419.868 225.651 414.14 229.849 407.219 237.571L396.086 251.027L395.666 251.535L395.035 251.35L362.905 241.979L361.405 241.542L362.43 240.363L383.197 216.486L383.208 216.473L383.219 216.462C394.589 204.225 404.03 196.371 414.613 192.977C425.23 189.573 436.826 190.708 452.39 196.032L554.434 230.205L567.233 217.634L567.255 217.614L567.277 217.594C578.989 207.386 588.526 201.574 598.725 199.937C608.929 198.299 619.62 200.867 633.573 206.998L633.607 207.014L633.64 207.031L739.792 263.408L739.891 263.461L739.976 263.534C754.223 275.855 761.809 286.757 762.199 298.731C762.589 310.669 755.809 323.336 742.279 339.153L742.245 339.192L742.209 339.227L543.564 528.589L542.332 529.765L541.906 528.116L533.42 495.214L533.274 494.646L533.697 494.241L722.834 313.678C727.679 308.354 729.715 304.603 729.579 301.26C729.444 297.948 727.156 294.669 722.223 290.332L628.96 240.833L628.938 240.823L628.917 240.81C618.373 234.547 610.546 231.97 603.124 233.376C595.674 234.786 588.368 240.255 579.008 250.813L578.987 250.836L578.964 250.859L485.458 343.666L547.579 582.21L608.551 528.597L608.554 528.594C616.866 521.347 622.552 515.795 625.406 510.196C628.201 504.714 628.315 499.102 625.158 491.568L625.147 491.539L625.136 491.51L617.687 470.131L617.475 469.526L617.938 469.081L643.09 444.906L644.255 443.786L644.738 445.328L656.273 482.175L656.285 482.212L656.294 482.248C659.379 495.576 660.147 505.757 657.569 515.262C654.99 524.767 649.102 533.463 639.157 543.903L639.125 543.937L639.089 543.968L556.772 615.648C556.78 615.677 556.788 615.707 556.796 615.738C556.911 616.192 557.079 616.861 557.286 617.724C557.701 619.448 558.277 621.949 558.926 625.056C560.222 631.268 561.807 639.912 562.959 649.639C565.322 669.588 553.706 685.416 531.2 701.531L531.172 701.551L531.141 701.57L433.52 761.519L433.419 761.581L433.306 761.618C417.18 766.877 405.524 767.937 395.831 763.646C386.16 759.363 378.695 749.86 370.65 734.692L370.592 734.58L370.562 734.457L303.738 457.772L303.336 456.103L304.987 456.576L338.358 466.152L338.918 466.313L339.055 466.878L401.082 723.699C403.398 729.528 405.594 732.508 408.291 733.734C410.979 734.956 414.468 734.574 419.789 732.78L502.797 680.456L502.829 680.437L502.861 680.419C516.505 673.167 524.442 666.881 528.089 659.455C531.712 652.076 531.208 643.338 527.311 630.86L527.303 630.837L527.298 630.814L493.166 500.22L256.109 434.268L273.774 524.911L273.775 524.91C275.444 532.911 277.901 537.983 281.865 541.452C285.851 544.94 291.497 546.933 299.838 548.451L299.859 548.454L299.879 548.459L318.695 552.704L319.314 552.843L319.451 553.462L326.571 585.373L326.901 586.855L325.409 586.574L298.812 581.558C281.993 578.764 270.202 574.748 261.367 567.096C252.525 559.437 246.773 548.25 241.765 531.418L241.751 531.371L241.742 531.323L221.1 424.818L202.3 419.621L202.24 419.604L202.183 419.581C187.624 413.524 178.01 407.504 171.773 399.17ZM485.301 466.136L459.415 367.113L386.596 439.043L485.301 466.136Z" fill="white"/>
<path d="M323.8 410.552L290.884 401.307L283.058 367.494C279.468 346.799 282.432 336.003 294.049 317.773L326.355 280.363L358.941 290.064L322.17 329.801C311.203 345.237 309.416 354.973 314.811 374.507L323.8 410.552Z" fill="white" stroke="#FFC533" stroke-width="2"/>
<defs>
<filter id="filter0_n_756_85" x="0" y="0" width="876" height="876" filterUnits="userSpaceOnUse" color-interpolation-filters="sRGB">
<feFlood flood-opacity="0" result="BackgroundImageFix"/>
<feBlend mode="normal" in="SourceGraphic" in2="BackgroundImageFix" result="shape"/>
<feTurbulence type="fractalNoise" baseFrequency="0.05000000074505806 0.05000000074505806" stitchTiles="stitch" numOctaves="3" result="noise" seed="7572" />
<feColorMatrix in="noise" type="luminanceToAlpha" result="alphaNoise" />
<feComponentTransfer in="alphaNoise" result="coloredNoise1">
<feFuncA type="discrete" tableValues="1 1 1 1 1 1 1 1 1 1 1 1 1 1 1 1 1 1 1 1 1 1 1 1 1 1 1 1 1 1 1 1 1 1 1 1 1 1 1 1 1 1 1 1 1 1 1 1 1 1 1 0 0 0 0 0 0 0 0 0 0 0 0 0 0 0 0 0 0 0 0 0 0 0 0 0 0 0 0 0 0 0 0 0 0 0 0 0 0 0 0 0 0 0 0 0 0 0 0 0 "/>
</feComponentTransfer>
<feComposite operator="in" in2="shape" in="coloredNoise1" result="noise1Clipped" />
<feFlood flood-color="rgba(0, 0, 0, 0.25)" result="color1Flood" />
<feComposite operator="in" in2="noise1Clipped" in="color1Flood" result="color1" />
<feMerge result="effect1_noise_756_85">
<feMergeNode in="shape" />
<feMergeNode in="color1" />
</feMerge>
</filter>
</defs>
</svg>
