<svg width="2817" height="876" viewBox="0 0 2817 876" fill="none" xmlns="http://www.w3.org/2000/svg">
<g filter="url(#filter0_n_313_138)">
<circle cx="438" cy="438" r="438" fill="#0C1A20"/>
<circle cx="438" cy="438" r="435.5" stroke="black" stroke-width="5"/>
</g>
<g filter="url(#filter1_n_313_138)">
<path d="M1064.75 700C1058.92 700 1056 697.083 1056 691.25V326.55H994.75C988.917 326.55 986 323.633 986 317.8V242.2C986 236.367 988.917 233.45 994.75 233.45H1233.8C1239.63 233.45 1242.55 236.367 1242.55 242.2V317.8C1242.55 323.633 1239.63 326.55 1233.8 326.55H1172.55V691.25C1172.55 697.083 1169.63 700 1163.8 700H1064.75ZM1335.18 700C1329.35 700 1326.43 697.083 1326.43 691.25V323.75C1326.43 317.917 1329.35 315 1335.18 315H1388.38C1392.81 315 1396.66 316.983 1399.93 320.95L1434.23 360.5L1472.38 319.2C1474.95 316.4 1478.21 315 1482.18 315H1519.98C1525.81 315 1528.73 317.917 1528.73 323.75V399C1528.73 402.733 1528.5 405.3 1528.03 406.7C1527.56 407.867 1526.28 409.15 1524.18 410.55L1437.38 474.6V691.25C1437.38 697.083 1434.46 700 1428.63 700H1335.18ZM1579.22 700C1573.39 700 1570.47 697.083 1570.47 691.25V323.75C1570.47 317.917 1573.39 315 1579.22 315H1672.32C1678.16 315 1681.07 317.917 1681.07 323.75V691.25C1681.07 697.083 1678.16 700 1672.32 700H1579.22ZM1577.47 285.95C1572.81 285.95 1570.47 283.617 1570.47 278.95V234.5C1570.47 229.833 1572.81 227.5 1577.47 227.5H1674.77C1678.97 227.5 1681.07 229.833 1681.07 234.5V278.95C1681.07 283.617 1678.97 285.95 1674.77 285.95H1577.47ZM1771.31 700C1765.48 700 1762.56 697.083 1762.56 691.25V323.75C1762.56 317.917 1765.48 315 1771.31 315H1958.56C1963.93 315 1968.6 316.983 1972.56 320.95L2042.56 390.95C2046.53 394.683 2048.51 399.35 2048.51 404.95V691.25C2048.51 697.083 2045.6 700 2039.76 700H1946.31C1940.48 700 1937.56 697.083 1937.56 691.25V418.95C1937.56 407.983 1932.08 402.5 1921.11 402.5H1873.51V691.25C1873.51 697.083 1870.6 700 1864.76 700H1771.31ZM2287.14 700C2284.8 700 2282.24 699.65 2279.44 698.95C2276.87 698.25 2274.42 697.667 2272.09 697.2L2209.79 681.8L2138.39 658C2131.39 655.667 2127.89 648.9 2127.89 637.7V404.95C2127.89 399.35 2129.87 394.683 2133.84 390.95L2203.84 320.95C2207.8 316.983 2212.47 315 2217.84 315H2329.84C2335.2 315 2339.87 316.983 2343.84 320.95L2413.84 390.95C2417.8 394.683 2419.79 399.35 2419.79 404.95V548.45H2231.84L2229.39 595L2279.09 611.45L2368.34 617.75C2372.3 618.45 2374.29 621.133 2374.29 625.8V691.25C2374.29 697.083 2371.37 700 2365.54 700H2287.14ZM2273.14 493.5H2279.79C2291.22 493.5 2300.32 489.183 2307.09 480.55C2314.09 471.917 2317.59 460.25 2317.59 445.55V438.55C2317.59 424.083 2314.09 412.533 2307.09 403.9C2300.32 395.267 2291.22 390.95 2279.79 390.95H2272.79C2261.59 390.95 2252.6 395.267 2245.84 403.9C2239.3 412.533 2236.04 424.083 2236.04 438.55V445.55C2236.04 460.25 2239.3 471.917 2245.84 480.55C2252.6 489.183 2261.7 493.5 2273.14 493.5ZM2500.34 700C2494.51 700 2491.59 697.083 2491.59 691.25V558.25C2491.59 556.15 2491.71 554.283 2491.94 552.65C2492.41 550.783 2493.46 549.15 2495.09 547.75L2540.59 511V498.75L2493.69 461.3C2492.06 459.9 2491.01 458.383 2490.54 456.75C2490.31 454.883 2490.19 452.9 2490.19 450.8V323.75C2490.19 317.917 2493.11 315 2498.94 315H2592.39C2598.22 315 2601.14 317.917 2601.14 323.75V461.3H2664.84V323.75C2664.84 317.917 2667.76 315 2673.59 315H2766.69C2772.52 315 2775.44 317.917 2775.44 323.75V450.8C2775.44 452.9 2775.32 454.883 2775.09 456.75C2774.86 458.383 2773.81 459.9 2771.94 461.3L2725.39 498.75V511L2773.34 547.75C2775.21 548.917 2776.26 550.433 2776.49 552.3C2776.72 554.167 2776.84 556.15 2776.84 558.25V691.25C2776.84 697.083 2773.92 700 2768.09 700H2674.64C2668.81 700 2665.89 697.083 2665.89 691.25V547.75H2602.19V691.25C2602.19 697.083 2599.27 700 2593.44 700H2500.34Z" fill="#0C1A20"/>
</g>
<path d="M515.866 326.229L540.626 302.116L570.666 311.015C594.849 321.135 604.231 332.077 615.7 358.224L626.465 392.776L602.429 416.37L588.017 369.1C581.332 351.873 574.934 345.17 558.183 338.807L515.866 326.229Z" fill="url(#paint0_linear_313_138)"/>
<path d="M492.84 535.063L500.729 569.269L475.388 592.265C454.32 606.813 441.084 609.74 415.495 605.875L378.319 597.714L371.074 565.017L424.127 576.684C438.814 578.142 445.85 576.337 456.762 569.046L492.84 535.063Z" fill="url(#paint1_linear_313_138)"/>
<path fill-rule="evenodd" clip-rule="evenodd" d="M171.773 399.17C165.531 390.829 162.773 380.305 161.614 365.475L161.612 365.454L161.611 365.433L157.342 248.023L157.338 247.902L157.363 247.783C160.918 230.661 166.204 219.356 174.935 212.635C183.669 205.913 195.638 203.941 212.135 204.941L212.248 204.949L212.357 204.981L484.349 285.214L486.005 285.703L484.756 286.896L459.934 310.615L459.515 311.016L458.96 310.852L208.164 236.919C204.723 236.187 201.875 235.786 199.523 235.832C197.172 235.878 195.39 236.37 194.021 237.353C191.276 239.324 189.748 243.605 189.414 252.044L193.509 355.738L193.51 355.761L193.51 355.783C193.451 367.284 194.972 374.649 198.788 379.832C202.598 385.005 208.835 388.193 218.716 390.972L353.545 428.409L528.417 255.427L449.775 228.467L449.748 228.458L449.72 228.447C439.767 224.377 432.578 222.931 426.216 224.293C419.867 225.651 414.14 229.849 407.219 237.571L396.085 251.027L395.666 251.535L395.035 251.35L362.905 241.979L361.405 241.542L362.43 240.363L383.197 216.486L383.208 216.473L383.219 216.462C394.588 204.225 404.03 196.371 414.613 192.977C425.23 189.573 436.826 190.708 452.389 196.032L554.433 230.205L567.233 217.634L567.254 217.614L567.277 217.594C578.989 207.386 588.526 201.574 598.724 199.937C608.928 198.299 619.619 200.867 633.573 206.998L633.607 207.014L633.64 207.031L739.791 263.408L739.891 263.461L739.976 263.534C754.223 275.855 761.808 286.757 762.199 298.731C762.589 310.669 755.809 323.336 742.278 339.153L742.245 339.192L742.208 339.227L543.564 528.589L542.332 529.765L541.906 528.116L533.419 495.214L533.273 494.646L533.697 494.241L722.833 313.678C727.679 308.354 729.715 304.603 729.579 301.26C729.444 297.948 727.156 294.669 722.222 290.332L628.959 240.833L628.938 240.823L628.917 240.81C618.373 234.547 610.546 231.97 603.123 233.376C595.673 234.786 588.368 240.256 579.008 250.813L578.987 250.836L578.964 250.859L485.457 343.666L547.579 582.21L608.55 528.597L608.554 528.594C616.866 521.346 622.551 515.795 625.406 510.196C628.2 504.713 628.314 499.102 625.158 491.568L625.146 491.539L625.136 491.51L617.686 470.131L617.475 469.526L617.938 469.081L643.09 444.906L644.255 443.786L644.738 445.328L656.273 482.175L656.285 482.212L656.294 482.248C659.379 495.576 660.147 505.757 657.568 515.262C654.99 524.767 649.102 533.463 639.157 543.903L639.125 543.937L639.089 543.968L556.772 615.648C556.779 615.677 556.787 615.707 556.795 615.738C556.911 616.192 557.078 616.861 557.286 617.723C557.701 619.448 558.277 621.949 558.925 625.056C560.222 631.268 561.807 639.912 562.959 649.639C565.322 669.588 553.705 685.415 531.2 701.531L531.172 701.551L531.141 701.57L433.52 761.519L433.419 761.581L433.306 761.618C417.18 766.877 405.523 767.937 395.831 763.645C386.16 759.363 378.694 749.86 370.65 734.692L370.592 734.58L370.562 734.457L303.738 457.772L303.335 456.103L304.987 456.576L338.358 466.152L338.918 466.312L339.055 466.878L401.082 723.699C403.397 729.527 405.594 732.508 408.29 733.734C410.979 734.956 414.468 734.574 419.789 732.78L502.797 680.456L502.828 680.437L502.861 680.419C516.504 673.167 524.441 666.881 528.088 659.455C531.712 652.076 531.208 643.338 527.31 630.86L527.303 630.837L527.297 630.814L493.166 500.22L256.109 434.268L273.774 524.911L273.775 524.91C275.444 532.911 277.901 537.983 281.865 541.452C285.851 544.94 291.497 546.932 299.838 548.451L299.859 548.454L299.879 548.459L318.695 552.704L319.313 552.843L319.451 553.462L326.57 585.373L326.9 586.855L325.408 586.573L298.812 581.558C281.993 578.764 270.202 574.748 261.366 567.096C252.524 559.437 246.773 548.25 241.765 531.418L241.751 531.371L241.742 531.323L221.1 424.818L202.3 419.621L202.24 419.604L202.183 419.581C187.624 413.524 178.009 407.503 171.773 399.17ZM485.3 466.136L459.415 367.113L386.595 439.043L485.3 466.136Z" fill="url(#paint2_linear_313_138)"/>
<path d="M323.8 410.552L290.884 401.307L283.057 367.494C279.468 346.799 282.432 336.003 294.048 317.773L326.354 280.363L358.941 290.064L322.17 329.801C311.203 345.237 309.416 354.973 314.811 374.507L323.8 410.552Z" fill="url(#paint3_linear_313_138)"/>
<defs>
<filter id="filter0_n_313_138" x="0" y="0" width="876" height="876" filterUnits="userSpaceOnUse" color-interpolation-filters="sRGB">
<feFlood flood-opacity="0" result="BackgroundImageFix"/>
<feBlend mode="normal" in="SourceGraphic" in2="BackgroundImageFix" result="shape"/>
<feTurbulence type="fractalNoise" baseFrequency="0.05000000074505806 0.05000000074505806" stitchTiles="stitch" numOctaves="3" result="noise" seed="7572" />
<feColorMatrix in="noise" type="luminanceToAlpha" result="alphaNoise" />
<feComponentTransfer in="alphaNoise" result="coloredNoise1">
<feFuncA type="discrete" tableValues="1 1 1 1 1 1 1 1 1 1 1 1 1 1 1 1 1 1 1 1 1 1 1 1 1 1 1 1 1 1 1 1 1 1 1 1 1 1 1 1 1 1 1 1 1 1 1 1 1 1 1 0 0 0 0 0 0 0 0 0 0 0 0 0 0 0 0 0 0 0 0 0 0 0 0 0 0 0 0 0 0 0 0 0 0 0 0 0 0 0 0 0 0 0 0 0 0 0 0 0 "/>
</feComponentTransfer>
<feComposite operator="in" in2="shape" in="coloredNoise1" result="noise1Clipped" />
<feFlood flood-color="rgba(0, 0, 0, 0.25)" result="color1Flood" />
<feComposite operator="in" in2="noise1Clipped" in="color1Flood" result="color1" />
<feMerge result="effect1_noise_313_138">
<feMergeNode in="shape" />
<feMergeNode in="color1" />
</feMerge>
</filter>
<filter id="filter1_n_313_138" x="986" y="227.5" width="1790.84" height="472.5" filterUnits="userSpaceOnUse" color-interpolation-filters="sRGB">
<feFlood flood-opacity="0" result="BackgroundImageFix"/>
<feBlend mode="normal" in="SourceGraphic" in2="BackgroundImageFix" result="shape"/>
<feTurbulence type="fractalNoise" baseFrequency="0.05000000074505806 0.05000000074505806" stitchTiles="stitch" numOctaves="3" result="noise" seed="3186" />
<feColorMatrix in="noise" type="luminanceToAlpha" result="alphaNoise" />
<feComponentTransfer in="alphaNoise" result="coloredNoise1">
<feFuncA type="discrete" tableValues="1 1 1 1 1 1 1 1 1 1 1 1 1 1 1 1 1 1 1 1 1 1 1 1 1 1 1 1 1 1 1 1 1 1 1 1 1 1 1 1 1 1 1 1 1 1 1 1 1 1 1 0 0 0 0 0 0 0 0 0 0 0 0 0 0 0 0 0 0 0 0 0 0 0 0 0 0 0 0 0 0 0 0 0 0 0 0 0 0 0 0 0 0 0 0 0 0 0 0 0 "/>
</feComponentTransfer>
<feComposite operator="in" in2="shape" in="coloredNoise1" result="noise1Clipped" />
<feFlood flood-color="rgba(0, 0, 0, 0.25)" result="color1Flood" />
<feComposite operator="in" in2="noise1Clipped" in="color1Flood" result="color1" />
<feMerge result="effect1_noise_313_138">
<feMergeNode in="shape" />
<feMergeNode in="color1" />
</feMerge>
</filter>
<linearGradient id="paint0_linear_313_138" x1="517.387" y1="269.661" x2="675.872" y2="526.826" gradientUnits="userSpaceOnUse">
<stop offset="0.144466" stop-color="#E5AF5A"/>
<stop offset="0.514825" stop-color="#C59D5F"/>
<stop offset="1" stop-color="#5F4C2E"/>
</linearGradient>
<linearGradient id="paint1_linear_313_138" x1="379.84" y1="534.57" x2="432.318" y2="691.687" gradientUnits="userSpaceOnUse">
<stop offset="0.144466" stop-color="#E5AF5A"/>
<stop offset="0.514825" stop-color="#C59D5F"/>
<stop offset="1" stop-color="#5F4C2E"/>
</linearGradient>
<linearGradient id="paint2_linear_313_138" x1="173" y1="34.9999" x2="854" y2="1364" gradientUnits="userSpaceOnUse">
<stop offset="0.144466" stop-color="#E5AF5A"/>
<stop offset="0.514825" stop-color="#C59D5F"/>
<stop offset="1" stop-color="#5F4C2E"/>
</linearGradient>
<linearGradient id="paint3_linear_313_138" x1="273.741" y1="250.961" x2="450.947" y2="501.506" gradientUnits="userSpaceOnUse">
<stop offset="0.144466" stop-color="#E5AF5A"/>
<stop offset="0.514825" stop-color="#C59D5F"/>
<stop offset="1" stop-color="#5F4C2E"/>
</linearGradient>
</defs>
</svg>
